<?xml version="1.0" encoding="iso-8859-1"?>
<!-- Generator: Adobe Illustrator 19.0.0, SVG Export Plug-In . SVG Version: 6.00 Build 0)  -->
<svg version="1.1" id="Capa_1" xmlns="http://www.w3.org/2000/svg" xmlns:xlink="http://www.w3.org/1999/xlink" x="0px" y="0px"
	 viewBox="0 0 512.001 512.001" style="enable-background:new 0 0 512.001 512.001;" xml:space="preserve">
<g>
	<g>
		<path d="M291.691,382.825H107.173v-35.183c0-4.142-3.358-7.5-7.5-7.5c-4.142,0-7.5,3.358-7.5,7.5v36.979
			c0,7.281,5.923,13.204,13.205,13.204h44.787v47.127c0,0.694-0.565,1.259-1.259,1.259h-37.385v-7.425
			c0-9.121-7.42-16.542-16.541-16.542H65.13c-9.121,0-16.542,7.42-16.542,16.542v29.85c0,9.121,7.42,16.542,16.542,16.542h29.85
			c9.121,0,16.541-7.42,16.541-16.542v-7.425h37.385c8.965,0,16.259-7.294,16.259-16.259v-47.127H248.5v51.242h-7.425
			c-9.121,0-16.542,7.42-16.542,16.542v29.85c0,9.121,7.42,16.542,16.542,16.542h29.85c9.121,0,16.542-7.42,16.542-16.542v-29.85
			c0-9.121-7.42-16.542-16.542-16.542H263.5v-51.242h28.191c4.142,0,7.5-3.358,7.5-7.5
			C299.191,386.183,295.833,382.825,291.691,382.825z M96.521,468.636c0,0.85-0.691,1.542-1.541,1.542H65.13
			c-0.85,0-1.542-0.691-1.542-1.542v-29.85c0-0.85,0.691-1.542,1.542-1.542h29.85c0.85,0,1.541,0.691,1.541,1.542V468.636z
			 M270.924,464.067c0.851,0,1.542,0.692,1.542,1.542v29.85c0,0.85-0.691,1.542-1.542,1.542h-29.85c-0.85,0-1.542-0.691-1.542-1.542
			v-29.85c0-0.85,0.691-1.542,1.542-1.542H270.924z"/>
	</g>
</g>
<g>
	<g>
		<path d="M292.621,138.61H141.607c-4.142,0-7.5,3.358-7.5,7.5c0,4.142,3.358,7.5,7.5,7.5h151.014c4.142,0,7.5-3.358,7.5-7.5
			C300.121,141.968,296.763,138.61,292.621,138.61z"/>
	</g>
</g>
<g>
	<g>
		<path d="M324.352,137.329c-4.142,0-7.5,3.358-7.5,7.5v0.819c0,4.143,3.358,7.5,7.5,7.5c4.142,0,7.5-3.358,7.5-7.5v-0.819
			C331.852,140.687,328.494,137.329,324.352,137.329z"/>
	</g>
</g>
<g>
	<g>
		<path d="M347.37,137.329c-4.142,0-7.5,3.358-7.5,7.5v0.819c0,4.143,3.358,7.5,7.5,7.5c4.142,0,7.5-3.358,7.5-7.5v-0.819
			C354.87,140.687,351.512,137.329,347.37,137.329z"/>
	</g>
</g>
<g>
	<g>
		<path d="M370.388,137.329c-4.142,0-7.5,3.358-7.5,7.5v0.819c0,4.143,3.358,7.5,7.5,7.5c4.142,0,7.5-3.358,7.5-7.5v-0.819
			C377.888,140.687,374.53,137.329,370.388,137.329z"/>
	</g>
</g>
<g>
	<g>
		<path d="M446.871,26.822h-29.85c-9.121,0-16.541,7.42-16.541,16.542v7.425h-37.385c-8.965,0-16.259,7.294-16.259,16.259v47.129
			H263.5V62.933h7.425c9.121,0,16.542-7.42,16.542-16.542v-29.85C287.466,7.42,280.046,0,270.925,0h-29.85
			c-9.121,0-16.542,7.42-16.542,16.542v29.85c0,9.121,7.42,16.542,16.542,16.542h7.425v51.244h-83.335v-47.13
			c0-8.965-7.294-16.259-16.259-16.259h-37.385v-7.425c0-9.121-7.42-16.542-16.541-16.542H65.13c-9.121,0-16.542,7.42-16.542,16.542
			v29.85c0,9.121,7.42,16.542,16.542,16.542h29.85c9.121,0,16.541-7.42,16.541-16.542v-7.425h37.385
			c0.694,0,1.259,0.565,1.259,1.259v47.129h-38.012c-11.017,0-19.98,8.963-19.98,19.979v182.868c0,4.142,3.358,7.5,7.5,7.5
			c4.142,0,7.5-3.358,7.5-7.5V176.301h297.649v30.057c0,4.142,3.358,7.5,7.5,7.5c4.142,0,7.5-3.358,7.5-7.5v-72.202
			c0-11.017-8.963-19.979-19.98-19.979h-38.007V67.048c0-0.694,0.565-1.259,1.259-1.259h37.385v7.425
			c0,9.121,7.42,16.542,16.541,16.542h29.85c9.121,0,16.542-7.42,16.542-16.542v-29.85
			C463.412,34.243,455.992,26.822,446.871,26.822z M96.521,73.213c0,0.85-0.691,1.542-1.541,1.542H65.13
			c-0.85,0-1.542-0.691-1.542-1.542v-29.85c0-0.85,0.691-1.542,1.542-1.542h29.85c0.85,0,1.541,0.691,1.541,1.542V73.213z
			 M241.076,47.933c-0.851,0-1.542-0.692-1.542-1.542v-29.85c0-0.85,0.691-1.542,1.542-1.542h29.85c0.85,0,1.542,0.691,1.542,1.542
			v29.85c0,0.85-0.691,1.542-1.542,1.542H241.076z M399.842,129.177c2.746,0,4.98,2.234,4.98,4.979v27.145H107.173v-27.145
			c0-2.746,2.234-4.979,4.98-4.979H399.842z M448.412,73.213c0,0.85-0.691,1.542-1.542,1.542h-29.85
			c-0.85,0-1.541-0.691-1.541-1.542v-29.85c0-0.85,0.691-1.542,1.541-1.542h29.85c0.85,0,1.542,0.691,1.542,1.542V73.213z"/>
	</g>
</g>
<g>
	<g>
		<path d="M446.871,422.245h-29.85c-9.121,0-16.541,7.42-16.541,16.542v7.425h-37.385c-0.694,0-1.259-0.565-1.259-1.259v-47.127
			h44.783c7.281,0,13.205-5.923,13.205-13.204V236.976c0-4.142-3.358-7.5-7.5-7.5c-4.142,0-7.5,3.358-7.5,7.5v145.85H322.31
			c-4.142,0-7.5,3.358-7.5,7.5c0,4.142,3.358,7.5,7.5,7.5h24.526v47.127c0,8.965,7.294,16.259,16.259,16.259h37.385v7.425
			c0,9.121,7.42,16.542,16.541,16.542h29.85c9.121,0,16.542-7.42,16.542-16.542v-29.85
			C463.412,429.666,455.992,422.245,446.871,422.245z M448.412,468.636c0,0.85-0.691,1.542-1.542,1.542h-29.85
			c-0.85,0-1.541-0.691-1.541-1.542v-29.85c0-0.85,0.691-1.542,1.541-1.542h29.85c0.85,0,1.542,0.691,1.542,1.542V468.636z"/>
	</g>
</g>
<g>
	<g>
		<path d="M161.19,277.016l28.045-28.045c2.929-2.93,2.929-7.679,0-10.608c-2.929-2.929-7.678-2.929-10.606,0l-33.349,33.349
			c-2.929,2.929-2.929,7.678,0,10.606l33.349,33.349c1.464,1.464,3.384,2.197,5.303,2.197s3.839-0.732,5.303-2.197
			c2.929-2.929,2.929-7.678,0-10.606L161.19,277.016z"/>
	</g>
</g>
<g>
	<g>
		<path d="M366.72,271.712l-33.349-33.349c-2.929-2.929-7.678-2.929-10.606,0c-2.929,2.929-2.929,7.678,0,10.606l28.045,28.045
			l-28.045,28.045c-2.929,2.93-2.929,7.679,0,10.608c1.464,1.464,3.384,2.197,5.303,2.197s3.839-0.732,5.303-2.197l33.349-33.349
			C369.649,279.389,369.649,274.64,366.72,271.712z"/>
	</g>
</g>
<g>
	<g>
		<path d="M249.011,241.481c-3.654-1.951-8.197-0.572-10.149,3.083l-33.257,62.267c-1.951,3.653-0.571,8.197,3.083,10.149
			c1.125,0.601,2.334,0.886,3.527,0.886c2.679,0,5.271-1.439,6.622-3.968l33.257-62.267
			C254.045,247.977,252.665,243.433,249.011,241.481z"/>
	</g>
</g>
<g>
	<g>
		<path d="M253.88,301.282c-4.142,0-7.5,3.358-7.5,7.5v0.757c0,4.142,3.358,7.5,7.5,7.5c4.142,0,7.5-3.358,7.5-7.5v-0.757
			C261.38,304.64,258.022,301.282,253.88,301.282z"/>
	</g>
</g>
<g>
	<g>
		<path d="M278.308,301.282c-4.142,0-7.5,3.358-7.5,7.5v0.757c0,4.142,3.358,7.5,7.5,7.5c4.142,0,7.5-3.358,7.5-7.5v-0.757
			C285.808,304.64,282.45,301.282,278.308,301.282z"/>
	</g>
</g>
<g>
	<g>
		<path d="M302.735,301.282c-4.142,0-7.5,3.358-7.5,7.5v0.757c0,4.142,3.358,7.5,7.5,7.5c4.142,0,7.5-3.358,7.5-7.5v-0.757
			C310.235,304.64,306.877,301.282,302.735,301.282z"/>
	</g>
</g>
<g>
</g>
<g>
</g>
<g>
</g>
<g>
</g>
<g>
</g>
<g>
</g>
<g>
</g>
<g>
</g>
<g>
</g>
<g>
</g>
<g>
</g>
<g>
</g>
<g>
</g>
<g>
</g>
<g>
</g>
</svg>
