<svg height="512pt" viewBox="-12 0 512 512" width="512pt" xmlns="http://www.w3.org/2000/svg"><path d="m192.675781 196.382812h-139.320312c-8.566407 0-15.53125-6.964843-15.53125-15.527343v-65.628907c0-8.566406 6.96875-15.53125 15.53125-15.53125h139.320312c8.5625 0 15.53125 6.96875 15.53125 15.53125v65.628907c0 8.5625-6.96875 15.527343-15.53125 15.527343zm-139.320312-81.660156c-.277344 0-.5.226563-.5.503906v65.625c0 .277344.222656.503907.5.503907h139.320312c.277344 0 .5-.226563.5-.503907v-65.625c0-.277343-.222656-.503906-.5-.503906zm0 0"/><path d="m192.675781 196.382812h-139.320312c-8.566407 0-15.53125-6.964843-15.53125-15.527343v-65.628907c0-8.566406 6.96875-15.53125 15.53125-15.53125h139.320312c8.5625 0 15.53125 6.96875 15.53125 15.53125v65.628907c0 8.5625-6.96875 15.527343-15.53125 15.527343zm-139.320312-81.660156c-.277344 0-.5.226563-.5.503906v65.625c0 .277344.222656.503907.5.503907h139.320312c.277344 0 .5-.226563.5-.503907v-65.625c0-.277343-.222656-.503906-.5-.503906zm0 0"/><path d="m379.242188 213.917969h-325.636719c-8.566407 0-15.53125 6.96875-15.53125 15.53125v19.035156c0 8.566406 6.96875 15.53125 15.53125 15.53125h325.636719c8.5625 0 15.527343-6.96875 15.527343-15.53125v-19.035156c.003907-8.5625-6.964843-15.53125-15.527343-15.53125zm.5 34.566406c0 .277344-.226563.5-.5.5h-325.636719c-.277344 0-.5-.222656-.5-.5v-19.035156c0-.277344.222656-.503907.5-.503907h325.636719c.273437 0 .5.226563.5.503907zm0 0"/><path d="m143.765625 296.839844c0-8.566406-6.96875-15.53125-15.53125-15.53125h-74.628906c-8.566407 0-15.53125 6.96875-15.53125 15.53125v63.90625c0 8.566406 6.96875 15.53125 15.53125 15.53125h74.628906c8.5625 0 15.53125-6.964844 15.53125-15.53125zm-15.03125 63.90625c0 .277344-.222656.503906-.5.503906h-74.628906c-.277344 0-.5-.226562-.5-.503906v-63.90625c0-.277344.222656-.5.5-.5h74.628906c.277344 0 .5.222656.5.5zm0 0"/><path d="m269.519531 296.839844c0-8.566406-6.96875-15.53125-15.53125-15.53125h-74.628906c-8.5625 0-15.53125 6.96875-15.53125 15.53125v63.90625c0 8.566406 6.96875 15.53125 15.53125 15.53125h74.628906c8.5625 0 15.53125-6.964844 15.53125-15.53125zm-15.03125 63.90625c0 .277344-.222656.503906-.5.503906h-74.628906c-.273437 0-.5-.226562-.5-.503906v-63.90625c0-.277344.226563-.5.5-.5h74.628906c.277344 0 .5.222656.5.5zm0 0"/><path d="m395.273438 296.839844c0-8.566406-6.96875-15.53125-15.53125-15.53125h-74.628907c-8.5625 0-15.527343 6.96875-15.527343 15.53125v63.90625c0 8.566406 6.964843 15.53125 15.527343 15.53125h74.628907c8.5625 0 15.53125-6.964844 15.53125-15.53125zm-15.03125 63.90625c0 .277344-.222657.503906-.5.503906h-74.628907c-.273437 0-.5-.226562-.5-.503906v-63.90625c0-.277344.226563-.5.5-.5h74.628907c.277343 0 .5.222656.5.5zm0 0"/><path d="m128.234375 389.976562h-74.628906c-8.566407 0-15.53125 6.96875-15.53125 15.53125v63.90625c0 8.566407 6.96875 15.53125 15.53125 15.53125h74.628906c8.5625 0 15.53125-6.964843 15.53125-15.53125v-63.90625c0-8.5625-6.96875-15.53125-15.53125-15.53125zm.5 79.441407c0 .273437-.222656.5-.5.5h-74.628906c-.277344 0-.5-.222657-.5-.5v-63.910157c0-.277343.222656-.5.5-.5h74.628906c.277344 0 .5.222657.5.5zm0 0"/><path d="m253.988281 389.976562h-74.628906c-8.5625 0-15.53125 6.96875-15.53125 15.53125v63.90625c0 8.566407 6.96875 15.53125 15.53125 15.53125h74.628906c8.5625 0 15.53125-6.964843 15.53125-15.53125v-63.90625c0-8.5625-6.96875-15.53125-15.53125-15.53125zm.5 79.441407c0 .273437-.222656.5-.5.5h-74.628906c-.273437 0-.5-.222657-.5-.5v-63.910157c0-.277343.226563-.5.5-.5h74.628906c.277344 0 .5.222657.5.5zm0 0"/><path d="m379.742188 389.976562h-74.628907c-8.5625 0-15.527343 6.96875-15.527343 15.53125v63.90625c0 8.566407 6.964843 15.53125 15.527343 15.53125h74.628907c8.5625 0 15.53125-6.964843 15.53125-15.53125v-63.90625c0-8.5625-6.96875-15.53125-15.53125-15.53125zm.5 79.441407c0 .273437-.222657.5-.5.5h-74.628907c-.273437 0-.5-.222657-.5-.5v-63.910157c0-.277343.226563-.5.5-.5h74.628907c.277343 0 .5.222657.5.5zm0 0"/><path d="m37.824219 115.226562v65.625c0 8.5625 6.964843 15.53125 15.53125 15.53125h139.320312c8.5625 0 15.527344-6.96875 15.527344-15.53125v-65.625c0-8.566406-6.964844-15.53125-15.527344-15.53125h-139.320312c-8.566407 0-15.53125 6.964844-15.53125 15.53125zm155.351562 0v65.625c0 .277344-.222656.503907-.5.503907h-139.320312c-.277344 0-.5-.226563-.5-.503907v-65.625c0-.277343.222656-.503906.5-.503906h139.320312c.277344 0 .5.226563.5.503906zm0 0"/><path d="m81.421875 53.691406h-35.882813c-4.140624 0-7.5-3.355468-7.5-7.5 0-4.140625 3.359376-7.5 7.5-7.5h35.882813c4.144531 0 7.5 3.359375 7.5 7.5 0 4.144532-3.355469 7.5-7.5 7.5zm0 0"/><path d="m171.5625 53.691406h-55.71875c-4.140625 0-7.5-3.355468-7.5-7.5 0-4.140625 3.359375-7.5 7.5-7.5h55.71875c4.140625 0 7.5 3.359375 7.5 7.5 0 4.144532-3.359375 7.5-7.5 7.5zm0 0"/><path d="m241.300781 53.691406h-35.289062c-4.144531 0-7.5-3.355468-7.5-7.5 0-4.140625 3.355469-7.5 7.5-7.5h35.289062c4.144531 0 7.5 3.359375 7.5 7.5 0 4.144532-3.355469 7.5-7.5 7.5zm0 0"/><path d="m56.34375 82.160156h-10.804688c-4.140624 0-7.5-3.355468-7.5-7.5 0-4.140625 3.359376-7.5 7.5-7.5h10.804688c4.140625 0 7.5 3.359375 7.5 7.5 0 4.144532-3.359375 7.5-7.5 7.5zm0 0"/><path d="m191.011719 82.160156h-100.335938c-4.140625 0-7.5-3.355468-7.5-7.5 0-4.140625 3.359375-7.5 7.5-7.5h100.335938c4.140625 0 7.5 3.359375 7.5 7.5 0 4.144532-3.359375 7.5-7.5 7.5zm0 0"/><path d="m241.300781 82.160156h-16.289062c-4.144531 0-7.5-3.355468-7.5-7.5 0-4.140625 3.355469-7.5 7.5-7.5h16.289062c4.144531 0 7.5 3.359375 7.5 7.5 0 4.144532-3.355469 7.5-7.5 7.5zm0 0"/><path d="m360.050781 77.347656c0 5.328125-4.320312 9.644532-9.648437 9.644532s-9.648438-4.316407-9.648438-9.644532c0-5.332031 4.320313-9.648437 9.648438-9.648437s9.648437 4.316406 9.648437 9.648437zm0 0"/><path d="m402.847656 77.347656c0 5.328125-4.320312 9.644532-9.648437 9.644532s-9.648438-4.316407-9.648438-9.644532c0-5.332031 4.320313-9.648437 9.648438-9.648437s9.648437 4.316406 9.648437 9.648437zm0 0"/><path d="m445.644531 77.347656c0 5.328125-4.320312 9.644532-9.648437 9.644532s-9.648438-4.316407-9.648438-9.644532c0-5.332031 4.320313-9.648437 9.648438-9.648437s9.648437 4.316406 9.648437 9.648437zm0 0"/><path d="m459.125 32.007812h-26.277344v-12.21875c0-10.910156-8.878906-19.789062-19.792968-19.789062h-393.265626c-10.910156 0-19.789062 8.878906-19.789062 19.789062v305.222657c0 4.148437 3.367188 7.511719 7.515625 7.511719s7.515625-3.363282 7.515625-7.511719v-305.222657c0-2.625 2.132812-4.761718 4.761719-4.761718h393.265625c2.625 0 4.757812 2.136718 4.757812 4.761718v12.21875h-47.972656c-4.152344 0-7.515625 3.367188-7.515625 7.515626 0 4.152343 3.363281 7.515624 7.515625 7.515624h89.28125c8.015625 0 14.535156 6.519532 14.535156 14.53125v30.980469c0 8.015625-6.519531 14.535157-14.535156 14.535157h-108.003906c-2.3125 0-4.507813 1.03125-5.929688 2.855468-1.425781 1.828125-1.9375 4.171875-1.375 6.417969.320313 1.378906 2.371094 11.917969-6.835937 19.898437 1.492187-10.628906-.570313-19.65625-6.109375-26.417968-1.429688-1.742188-3.5625-2.753906-5.816406-2.753906h-9.792969c-8.015625 0-14.53125-6.519532-14.53125-14.535157v-30.980469c0-8.011718 6.519531-14.53125 14.53125-14.53125h20.761719c4.152343 0 7.515624-3.363281 7.515624-7.515624 0-4.152344-3.363281-7.515626-7.515624-7.515626h-20.761719c-16.300781 0-29.5625 13.261719-29.5625 29.5625v30.980469c0 2.464844.308593 4.855469.878906 7.144531h-46.40625c-8.566406 0-15.53125 6.964844-15.53125 15.527344v65.628906c0 8.5625 6.964844 15.53125 15.53125 15.53125h139.320313c8.5625 0 15.527343-6.96875 15.527343-15.53125v-58.738281h22.796875v370.097657c0 2.625-2.136718 4.761718-4.761718 4.761718h-393.265626c-2.625 0-4.757812-2.136718-4.757812-4.761718v-132.34375c0-4.148438-3.367188-7.511719-7.515625-7.511719-4.152344 0-7.515625 3.363281-7.515625 7.511719v132.34375c0 10.910156 8.878906 19.789062 19.789062 19.789062h393.265626c10.914062 0 19.792968-8.878906 19.792968-19.789062v-370.097657h26.277344c16.300781 0 29.5625-13.261719 29.5625-29.5625v-30.980469c0-16.300781-13.261719-29.5625-29.5625-29.5625zm-79.132812 148.84375c0 .277344-.222657.503907-.5.503907h-139.320313c-.277344 0-.5-.226563-.5-.503907v-65.625c0-.277343.222656-.503906.5-.503906h55.570313c5.210937 4.59375 12.042968 7.390625 19.519531 7.390625h5.675781c2.664062 5.914063 1.105469 13.792969-.21875 18.363281-1.277344 4.398438.09375 8.976563 3.566406 11.945313 2.128906 1.820313 4.808594 2.769531 7.519532 2.769531 1.664062 0 3.339843-.359375 4.902343-1.089844 16.859375-7.890624 21.980469-21.539062 22.511719-31.988281h20.773438zm0 0"/></svg>