<?xml version="1.0" encoding="iso-8859-1"?>
<!-- Generator: Adobe Illustrator 19.0.0, SVG Export Plug-In . SVG Version: 6.00 Build 0)  -->
<svg version="1.1" id="Capa_1" xmlns="http://www.w3.org/2000/svg" xmlns:xlink="http://www.w3.org/1999/xlink" x="0px" y="0px"
	 viewBox="0 0 512 512" style="enable-background:new 0 0 512 512;" xml:space="preserve">
<g>
	<g>
		<path d="M492.5,37.5h-473C8.748,37.5,0,46.248,0,57v120.5c0,4.142,3.358,7.5,7.5,7.5s7.5-3.358,7.5-7.5v-15h27.5V225
			c0,4.142,3.358,7.5,7.5,7.5h100c4.142,0,7.5-3.358,7.5-7.5v-62.5H497v267h-15V337c0-4.142-3.357-7.5-7.5-7.5h-100
			c-4.143,0-7.5,3.358-7.5,7.5v92.5h-15c-4.143,0-7.5,3.358-7.5,7.5c0,4.142,3.357,7.5,7.5,7.5h145V455c0,2.481-2.019,4.5-4.5,4.5
			h-473c-2.481,0-4.5-2.019-4.5-4.5v-10.5h304.833c4.143,0,7.5-3.358,7.5-7.5c0-4.142-3.357-7.5-7.5-7.5H15V210
			c0-4.142-3.358-7.5-7.5-7.5S0,205.858,0,210v245c0,10.752,8.748,19.5,19.5,19.5h473c10.752,0,19.5-8.748,19.5-19.5V57
			C512,46.248,503.252,37.5,492.5,37.5z M467,429.5h-85v-85h85V429.5z M42.5,147.5H15v-15h27.5V147.5z M142.5,217.5h-85v-85h85
			V217.5z M15,117.5V57c0-2.481,2.019-4.5,4.5-4.5H181v65H15z M497,117.5h-48.497c-4.143,0-7.5,3.358-7.5,7.5
			c0,4.142,3.357,7.5,7.5,7.5H497v15H157.5v-15H416c4.143,0,7.5-3.358,7.5-7.5c0-4.142-3.357-7.5-7.5-7.5H196v-65h296.5
			c2.481,0,4.5,2.019,4.5,4.5V117.5z"/>
	</g>
</g>
<g>
	<g>
		<path d="M47,62.5c-12.407,0-22.5,10.093-22.5,22.5s10.093,22.5,22.5,22.5S69.5,97.407,69.5,85S59.407,62.5,47,62.5z M47,92.5
			c-4.136,0-7.5-3.364-7.5-7.5s3.364-7.5,7.5-7.5s7.5,3.364,7.5,7.5S51.136,92.5,47,92.5z"/>
	</g>
</g>
<g>
	<g>
		<path d="M99,62.5c-12.407,0-22.5,10.093-22.5,22.5s10.093,22.5,22.5,22.5s22.5-10.093,22.5-22.5S111.407,62.5,99,62.5z M99,92.5
			c-4.136,0-7.5-3.364-7.5-7.5s3.364-7.5,7.5-7.5s7.5,3.364,7.5,7.5S103.136,92.5,99,92.5z"/>
	</g>
</g>
<g>
	<g>
		<path d="M150,62.5c-12.407,0-22.5,10.093-22.5,22.5s10.093,22.5,22.5,22.5s22.5-10.093,22.5-22.5S162.407,62.5,150,62.5z
			 M150,92.5c-4.136,0-7.5-3.364-7.5-7.5s3.364-7.5,7.5-7.5s7.5,3.364,7.5,7.5S154.136,92.5,150,92.5z"/>
	</g>
</g>
<g>
	<g>
		<path d="M455,178.5h-60c-4.143,0-7.5,3.358-7.5,7.5c0,4.142,3.357,7.5,7.5,7.5h60c4.143,0,7.5-3.358,7.5-7.5
			C462.5,181.858,459.143,178.5,455,178.5z"/>
	</g>
</g>
<g>
	<g>
		<path d="M455,206.5h-60c-4.143,0-7.5,3.358-7.5,7.5c0,4.142,3.357,7.5,7.5,7.5h60c4.143,0,7.5-3.358,7.5-7.5
			C462.5,209.858,459.143,206.5,455,206.5z"/>
	</g>
</g>
<g>
	<g>
		<path d="M345,323.5c7.342,0,14.247-2.861,19.443-8.057c5.195-5.196,8.057-12.101,8.057-19.443c0-15.164-12.337-27.5-27.5-27.5
			h-16.571c-0.545-1.441-1.128-2.869-1.761-4.282l11.706-11.705c5.201-5.202,8.066-12.107,8.066-19.443
			c0-7.337-2.865-14.242-8.063-19.439c-5.194-5.201-12.102-8.065-19.448-8.065s-14.252,2.865-19.441,8.062l-11.68,11.679
			c-1.418-0.639-2.854-1.233-4.307-1.784V207c0-7.343-2.861-14.248-8.058-19.444c-5.195-5.195-12.101-8.056-19.442-8.056
			c-15.164,0-27.5,12.336-27.5,27.5v16.522c-1.454,0.551-2.89,1.146-4.307,1.784l-11.676-11.676
			c-5.194-5.201-12.101-8.065-19.446-8.065c-7.346,0-14.252,2.864-19.44,8.059c-5.201,5.194-8.065,12.101-8.065,19.447
			s2.864,14.252,8.062,19.443l11.705,11.705c-0.633,1.412-1.217,2.841-1.761,4.282H167V268.5c-15.164,0-27.5,12.336-27.5,27.5
			s12.336,27.5,27.5,27.5h16.571c0.545,1.441,1.128,2.869,1.761,4.282l-11.702,11.702c-5.201,5.194-8.065,12.101-8.065,19.446
			c0,7.346,2.864,14.252,8.059,19.44c5.194,5.201,12.101,8.065,19.447,8.065c7.346,0,14.252-2.864,19.443-8.062l11.679-11.679
			c1.417,0.638,2.854,1.233,4.307,1.784V385c0,15.164,12.336,27.5,27.5,27.5c15.163,0,27.5-12.336,27.5-27.5v-16.522
			c1.454-0.551,2.89-1.146,4.307-1.784l11.679,11.679c5.202,5.202,12.107,8.067,19.443,8.067c7.337,0,14.242-2.865,19.44-8.063
			c5.201-5.194,8.064-12.101,8.064-19.447c0-7.346-2.863-14.252-8.062-19.443l-11.705-11.705c0.633-1.413,1.217-2.841,1.761-4.282
			H345z M332.436,283.5H345c6.893,0,12.5,5.607,12.5,12.5c0,3.336-1.301,6.474-3.663,8.836c-2.363,2.362-5.501,3.664-8.837,3.664
			h-12.564C333.778,300.224,333.778,291.776,332.436,283.5z M179.564,308.5H167c-6.893,0-12.5-5.607-12.5-12.5s5.607-12.5,12.5-12.5
			h12.564C178.222,291.776,178.222,300.224,179.564,308.5z M243.5,207c0-6.893,5.607-12.5,12.5-12.5
			c3.336,0,6.474,1.301,8.836,3.663c2.363,2.363,3.664,5.501,3.664,8.837v12.515c-4.096-0.661-8.27-1.015-12.5-1.015
			c-4.23,0-8.404,0.354-12.5,1.015V207z M184.23,241.903c-2.363-2.36-3.665-5.498-3.665-8.833c0-3.336,1.302-6.473,3.672-8.84
			c2.36-2.363,5.498-3.665,8.833-3.665s6.473,1.302,8.836,3.668l8.847,8.847c-3.363,2.429-6.564,5.129-9.554,8.119
			c-3.009,3.009-5.704,6.212-8.114,9.559L184.23,241.903z M201.903,367.77c-2.36,2.363-5.498,3.665-8.833,3.665
			c-3.336,0-6.473-1.302-8.84-3.672c-2.363-2.36-3.665-5.498-3.665-8.833s1.302-6.473,3.668-8.836l8.852-8.852
			c2.41,3.347,5.105,6.55,8.114,9.559c2.99,2.99,6.192,5.69,9.554,8.119L201.903,367.77z M268.5,385c0,6.893-5.607,12.5-12.5,12.5
			s-12.5-5.607-12.5-12.5v-12.515c4.096,0.661,8.27,1.015,12.5,1.015c4.23,0,8.404-0.354,12.5-1.015V385z M285.832,350.945
			c-0.017,0.009-0.032,0.019-0.049,0.028c-3.755,2.041-7.703,3.687-11.797,4.91c-0.087,0.024-0.175,0.045-0.261,0.072
			c-5.682,1.671-11.635,2.546-17.724,2.546s-12.042-0.875-17.724-2.546c-0.085-0.027-0.172-0.047-0.258-0.071
			c-4.099-1.225-8.052-2.873-11.811-4.917c-0.012-0.006-0.024-0.014-0.036-0.02c-5.213-2.839-10.051-6.436-14.365-10.751
			c-24.368-24.369-24.368-64.02,0-88.389c4.313-4.316,9.151-7.913,14.364-10.752c0.012-0.006,0.024-0.014,0.036-0.02
			c3.759-2.044,7.712-3.692,11.811-4.917c0.086-0.024,0.173-0.044,0.258-0.071c5.683-1.672,11.635-2.546,17.724-2.546
			s12.041,0.875,17.724,2.546c0.086,0.027,0.174,0.048,0.261,0.072c4.089,1.222,8.033,2.865,11.784,4.903
			c0.022,0.012,0.043,0.025,0.065,0.037c5.211,2.839,10.047,6.435,14.36,10.748c24.369,24.369,24.369,64.02,0,88.389
			C295.881,344.51,291.043,348.107,285.832,350.945z M327.771,350.097c2.363,2.36,3.664,5.497,3.664,8.833s-1.301,6.473-3.668,8.837
			c-2.368,2.369-5.507,3.673-8.837,3.673c-3.329,0-6.468-1.305-8.837-3.673l-8.846-8.846c3.363-2.429,6.564-5.129,9.554-8.12
			c3.009-3.009,5.705-6.212,8.114-9.56L327.771,350.097z M318.916,250.759c-2.41-3.347-5.106-6.551-8.114-9.56
			c-2.99-2.99-6.191-5.69-9.554-8.119l8.849-8.85c2.36-2.363,5.497-3.665,8.833-3.665s6.474,1.302,8.838,3.669
			c2.368,2.368,3.673,5.506,3.673,8.836s-1.305,6.468-3.673,8.837L318.916,250.759z"/>
	</g>
</g>
<g>
	<g>
		<path d="M295.5,296c0-10.551-4.109-20.47-11.569-27.931c-7.461-7.46-17.38-11.569-27.931-11.569
			c-10.551,0-20.47,4.109-27.931,11.569c-15.401,15.401-15.401,40.46,0,55.861c7.461,7.461,17.38,11.57,27.931,11.57
			c10.551,0,20.47-4.109,27.931-11.569h-0.001C291.391,316.471,295.5,306.551,295.5,296z M273.324,313.324c-0.001,0-0.001,0-0.001,0
			c-4.627,4.627-10.779,7.176-17.323,7.176s-12.697-2.548-17.324-7.176c-9.552-9.553-9.552-25.095,0-34.648
			c4.627-4.627,10.78-7.176,17.324-7.176s12.696,2.548,17.324,7.176c4.627,4.627,7.176,10.78,7.176,17.324
			S277.951,308.697,273.324,313.324z"/>
	</g>
</g>
<g>
</g>
<g>
</g>
<g>
</g>
<g>
</g>
<g>
</g>
<g>
</g>
<g>
</g>
<g>
</g>
<g>
</g>
<g>
</g>
<g>
</g>
<g>
</g>
<g>
</g>
<g>
</g>
<g>
</g>
</svg>
